<svg width="14" height="14" viewBox="0 0 14 14" fill="none" xmlns="http://www.w3.org/2000/svg">
    <path d="M2.91667 11.0833L4.52492 6.79523C4.56659 6.68406 4.64119 6.58826 4.73875 6.52061C4.83631 6.45296 4.95219 6.41669 5.07092 6.41665H12.25M2.91667 11.0833H11.0985C11.3699 11.0832 11.6328 10.9885 11.8419 10.8155C12.051 10.6425 12.1933 10.402 12.2442 10.1354L12.8252 7.09565C12.8391 7.01212 12.8346 6.92656 12.8121 6.84493C12.7896 6.7633 12.7496 6.68755 12.6948 6.62294C12.6401 6.55833 12.572 6.50641 12.4951 6.47078C12.4183 6.43516 12.3347 6.41669 12.25 6.41665M2.91667 11.0833C2.60725 11.0833 2.3105 10.9604 2.09171 10.7416C1.87292 10.5228 1.75 10.2261 1.75 9.91665V3.49998C1.75 3.19056 1.87292 2.89381 2.09171 2.67502C2.3105 2.45623 2.60725 2.33331 2.91667 2.33331H5.25L7 4.08331H11.0833C11.3928 4.08331 11.6895 4.20623 11.9083 4.42502C12.1271 4.64381 12.25 4.94056 12.25 5.24998V6.41665" stroke="white" stroke-linecap="round" stroke-linejoin="round"/>
</svg>
