<svg width="14" height="14" viewBox="0 0 14 14" fill="none" xmlns="http://www.w3.org/2000/svg">
<g clip-path="url(#clip0_77_20)">
<path d="M11.0833 12.1042C11.238 12.1042 11.3864 12.0427 11.4958 11.9334C11.6052 11.824 11.6667 11.6756 11.6667 11.5209V10.794C11.669 9.15721 9.3485 7.87504 7 7.87504C4.6515 7.87504 2.33333 9.15721 2.33333 10.794V11.5209C2.33333 11.6756 2.39479 11.824 2.50419 11.9334C2.61358 12.0427 2.76196 12.1042 2.91667 12.1042H11.0833ZM9.10233 3.99821C9.10233 4.27429 9.04796 4.54767 8.9423 4.80274C8.83665 5.0578 8.68179 5.28956 8.48657 5.48478C8.29135 5.68 8.0596 5.83486 7.80453 5.94051C7.54946 6.04616 7.27608 6.10054 7 6.10054C6.72392 6.10054 6.45054 6.04616 6.19547 5.94051C5.9404 5.83486 5.70865 5.68 5.51343 5.48478C5.31821 5.28956 5.16335 5.0578 5.0577 4.80274C4.95204 4.54767 4.89767 4.27429 4.89767 3.99821C4.89767 3.44063 5.11916 2.9059 5.51343 2.51163C5.90769 2.11737 6.44243 1.89587 7 1.89587C7.55757 1.89587 8.09231 2.11737 8.48657 2.51163C8.88084 2.9059 9.10233 3.44063 9.10233 3.99821Z" stroke="white" stroke-width="0.875" stroke-linecap="round" stroke-linejoin="round"/>
</g>
<defs>
<clipPath id="clip0_77_20">
<rect width="14" height="14" fill="white"/>
</clipPath>
</defs>
</svg>
