<svg width="14" height="14" viewBox="0 0 14 14" fill="none" xmlns="http://www.w3.org/2000/svg">
<path d="M7 6.99998C6.35833 6.99998 5.80903 6.77151 5.35208 6.31456C4.89514 5.85762 4.66667 5.30831 4.66667 4.66665C4.66667 4.02498 4.89514 3.47567 5.35208 3.01873C5.80903 2.56179 6.35833 2.33331 7 2.33331C7.64167 2.33331 8.19097 2.56179 8.64792 3.01873C9.10486 3.47567 9.33333 4.02498 9.33333 4.66665C9.33333 5.30831 9.10486 5.85762 8.64792 6.31456C8.19097 6.77151 7.64167 6.99998 7 6.99998ZM2.33333 11.6666V10.0333C2.33333 9.70276 2.4185 9.39903 2.58883 9.12215C2.75917 8.84526 2.98511 8.6337 3.26667 8.48748C3.86944 8.18609 4.48194 7.96015 5.10417 7.80965C5.72639 7.65915 6.35833 7.5837 7 7.58331C7.64167 7.58292 8.27361 7.65837 8.89583 7.80965C9.51806 7.96092 10.1306 8.18687 10.7333 8.48748C11.0153 8.63331 11.2414 8.84487 11.4117 9.12215C11.5821 9.39942 11.6671 9.70315 11.6667 10.0333V11.6666H2.33333ZM3.5 10.5H10.5V10.0333C10.5 9.92637 10.4734 9.82915 10.4201 9.74165C10.3668 9.65415 10.2962 9.58609 10.2083 9.53748C9.68333 9.27498 9.15347 9.0782 8.61875 8.94715C8.08403 8.81609 7.54444 8.75037 7 8.74998C6.45556 8.74959 5.91597 8.81531 5.38125 8.94715C4.84653 9.07898 4.31667 9.27576 3.79167 9.53748C3.70417 9.58609 3.63358 9.65415 3.57992 9.74165C3.52625 9.82915 3.49961 9.92637 3.5 10.0333V10.5ZM7 5.83331C7.32083 5.83331 7.59558 5.71917 7.82425 5.4909C8.05292 5.26262 8.16706 4.98787 8.16667 4.66665C8.16628 4.34542 8.05214 4.07087 7.82425 3.84298C7.59636 3.61509 7.32161 3.50076 7 3.49998C6.67839 3.4992 6.40383 3.61354 6.17633 3.84298C5.94883 4.07242 5.8345 4.34698 5.83333 4.66665C5.83217 4.98631 5.9465 5.26106 6.17633 5.4909C6.40617 5.72073 6.68072 5.83487 7 5.83331Z" stroke-width="0.03" stroke="white" fill="white"/>
</svg>
